<?xml version="1.0" encoding="iso-8859-1"?>
<!-- Uploaded to: SVG Repo, www.svgrepo.com, Generator: SVG Repo Mixer Tools -->
<svg version="1.1" id="Capa_1" xmlns="http://www.w3.org/2000/svg" xmlns:xlink="http://www.w3.org/1999/xlink" 
	 viewBox="0 0 56.799 56.799" xml:space="preserve">
<path style="fill:#ECF0F1;" d="M54.313,33.992c-17.426,6.664-26.209,3.157-29.351,2.37c-4.165-1.044-7.828-3.635-10.052-7.308
	c-0.122-0.202-0.236-0.4-0.344-0.596c-2.345-4.281,1.449-9.422,6.229-8.438c5.329,1.097,8.165,0.302,9.655-0.033
	c0.563-0.127,1.098-0.333,1.602-0.614l9.796-5.468c-0.247-0.268-0.461-0.464-0.63-0.565c0,0-0.593-0.634-1.72-1.542
	c-8.171-6.576-19.643-7.137-28.615-1.704c-4.223,2.558-8.304,6.402-9.754,12.045c0,0-4.644,13.933,4.889,24.444
	c0,0,1.762,2.422,13.478,3.456c8.201,0.723,16.457,0.323,24.585-0.984c3.826-0.615,7.854-1.434,10.825-2.472
	c0,0,2.301-6.6,0.164-11.348L54.313,33.992z"/>
<path style="fill:#F3D55B;" d="M17.555,46.606c-6.044,0-11.196-4.65-11.706-10.779c-0.046-0.551,0.362-1.034,0.913-1.079
	c0.562-0.065,1.034,0.362,1.079,0.913c0.446,5.359,5.166,9.358,10.532,8.912c0.564-0.058,1.034,0.363,1.079,0.913
	c0.046,0.551-0.362,1.034-0.913,1.079C18.209,46.593,17.881,46.606,17.555,46.606z"/>
<path style="fill:#38454F;" d="M56.35,29.583l-9.666-15.304c-0.794-1.257-2.423-1.688-3.735-0.989l-10.896,6.082
	c-0.504,0.281-1.039,0.488-1.602,0.614c-1.49,0.335-4.326,1.13-9.655,0.033c-4.781-0.984-8.574,4.157-6.229,8.438
	c0.107,0.196,0.221,0.393,0.344,0.596c2.224,3.673,5.887,6.265,10.052,7.308c3.193,0.8,12.203,4.416,30.192-2.692
	C56.744,33.042,57.263,31.028,56.35,29.583z"/>
<circle style="fill:#ECF0F1;stroke:#546A79;stroke-width:2;stroke-linecap:round;stroke-linejoin:round;stroke-miterlimit:10;" cx="20.055" cy="26.403" r="3"/>
</svg>